# xmcd
#
# Track frame offsets:
#	150
#	16944
#	35998
#	52271
#	70848
#	89685
#	114485
#	132142
#	148385
#	171234
#	184712
#	201372
#	225686
#	243506
#	259186
#
# Disc length: 3730 seconds
#
# Revision: 1
# Processed by: cddbd v1.5.1PL2 Copyright (c) Steve Scherf et al.
# Submitted via: audiograbber 1.83.01
#
DISCID=e80e900f
DTITLE=Chartbuster - cb90132
DYEAR=1900
DGENRE=
TTITLE0=Charlie Daniels Band - Devil Went Down To Georgia
TTITLE1=Charlie Daniels Band - Long Haired Country Boy
TTITLE2=Charlie Daniels Band - In America
TTITLE3=Charlie Daniels Band - South's Gonna Do It Again
TTITLE4=Charlie Daniels Band - Road Dogs
TTITLE5=Charlie Daniels Band - Uneasy Rider
TTITLE6=Charlie Daniels Band - Drinkin' My Baby Goodbye
TTITLE7=Charlie Daniels Band - Boogie Woogie Fiddle Country Blues
TTITLE8=Charlie Daniels Band - Funky Junky
TTITLE9=Charlie Daniels Band - Witchita Jail
TTITLE10=Charlie Daniels Band - Simple Man
TTITLE11=Charlie Daniels Band - America I Believe In You
TTITLE12=Charlie Daniels Band - A Few More Rednecks
TTITLE13=Charlie Daniels Band - Little Folks
TTITLE14=Charlie Daniels Band - Legend Of Wooley Swamp
EXTD=
EXTT0=
EXTT1=
EXTT2=
EXTT3=
EXTT4=
EXTT5=
EXTT6=
EXTT7=
EXTT8=
EXTT9=
EXTT10=
EXTT11=
EXTT12=
EXTT13=
EXTT14=
PLAYORDER=
